<svg width="40" height="40" viewBox="0 0 40 40" fill="none" xmlns="http://www.w3.org/2000/svg">
<path d="M35.0164 13.5789L35.0164 13.5789L35.0166 13.5828C35.1221 15.457 35.12 17.3193 35.118 19.21C35.1177 19.4727 35.1174 19.736 35.1174 20C35.1174 20.2956 35.1178 20.5904 35.1183 20.8845C35.121 22.7433 35.1237 24.5738 35.0167 26.4163L35.0164 26.4211C34.8984 28.8585 34.3514 30.9299 32.6427 32.6386C30.9379 34.3435 28.8624 34.8942 26.4252 35.0123L26.4213 35.0125C24.547 35.118 22.6847 35.1159 20.794 35.1138C20.5313 35.1136 20.268 35.1133 20.0041 35.1133C19.7407 35.1133 19.478 35.1136 19.2157 35.1138C17.3275 35.1159 15.4646 35.118 13.5868 35.0125L13.583 35.0123C11.1456 34.8942 9.07414 34.3473 7.36546 32.6386C5.66058 30.9338 5.10984 28.8583 4.9918 26.4211L4.99158 26.4172C4.88613 24.5429 4.88817 22.6775 4.89024 20.7886C4.89052 20.5262 4.89081 20.2634 4.89081 20C4.89081 19.7366 4.89052 19.4738 4.89024 19.2115C4.88817 17.3233 4.88613 15.4605 4.99159 13.5827L4.9916 13.5827L4.99179 13.5789C5.10985 11.1415 5.65678 9.07004 7.36546 7.36137C9.07033 5.65649 11.1458 5.10575 13.583 4.9877L13.583 4.98771L13.5869 4.98749C15.4611 4.88204 17.3234 4.88408 19.2142 4.88615C19.4769 4.88643 19.7402 4.88672 20.0041 4.88672C20.2675 4.88672 20.5303 4.88643 20.7926 4.88615C22.6808 4.88408 24.5436 4.88204 26.4214 4.9875V4.98751L26.4252 4.9877C28.8626 5.10576 30.9341 5.65269 32.6427 7.36137C34.3476 9.06624 34.8984 11.1417 35.0164 13.5789ZM15.2932 20C15.2932 17.409 17.4091 15.293 20.0002 15.293C22.5912 15.293 24.7072 17.409 24.7072 20C24.7072 22.591 22.5912 24.707 20.0002 24.707C17.4091 24.707 15.2932 22.591 15.2932 20ZM11.4885 20C11.4885 24.7097 15.2905 28.5117 20.0002 28.5117C24.7099 28.5117 28.5119 24.7097 28.5119 20C28.5119 15.2903 24.7099 11.4883 20.0002 11.4883C15.2905 11.4883 11.4885 15.2903 11.4885 20ZM25.969 11.6602C25.969 12.9712 27.0284 14.0309 28.3394 14.0312L28.34 13.5312C28.5858 13.5316 28.8293 13.4834 29.0564 13.3895C29.2836 13.2955 29.49 13.1577 29.6638 12.9839C29.8376 12.8101 29.9754 12.6037 30.0693 12.3766C30.1633 12.1494 30.2115 11.906 30.2111 11.6602H30.7111C30.7111 11.6599 30.7111 11.6597 30.7111 11.6595C30.7108 10.3485 29.6511 9.28906 28.34 9.28906C27.0287 9.28906 25.969 10.3489 25.969 11.6602Z" stroke="white"/>
</svg>
