<svg width="40" height="40" viewBox="0 0 40 40" fill="none" xmlns="http://www.w3.org/2000/svg">
<path d="M13.6357 26.9493C11.2079 26.8975 9.13095 25.4663 8.16464 23.4133C8.32517 23.4237 8.48873 23.4297 8.65625 23.4297L8.65764 23.4297C9.29141 23.4279 9.92244 23.3464 10.5359 23.1871L10.5093 22.2131C7.92092 21.6894 5.92597 19.558 5.61312 16.8974C6.39021 17.2153 7.21894 17.3961 8.06235 17.4293L9.83259 17.499L8.36 16.5141C6.69996 15.4038 5.61328 13.5176 5.61328 11.3789L5.61328 11.3773C5.6105 10.5269 5.78514 9.688 6.12299 8.91329C9.47862 12.7334 14.3256 15.2051 19.7278 15.4876L20.3734 15.5214L20.2437 14.888C20.1476 14.4184 20.0898 13.9368 20.0898 13.4609C20.0898 10.0639 22.8361 7.29688 26.25 7.29688L26.2511 7.29687C27.0948 7.29501 27.9298 7.46692 28.7042 7.8019C29.4786 8.13688 30.1756 8.62774 30.752 9.24391L30.9408 9.44571L31.2121 9.39325C32.2763 9.18747 33.3105 8.85601 34.2932 8.40701C33.7731 9.2764 33.042 10.0102 32.1587 10.535L32.4677 11.462C33.2599 11.3765 34.0373 11.2152 34.7874 10.9942C34.1364 11.7289 33.4064 12.3961 32.6148 12.9754L32.3927 13.138L32.4113 13.4126C32.4295 13.682 32.4297 13.9542 32.4297 14.2461C32.4297 22.8397 25.893 32.7031 13.9766 32.7031C11.0251 32.7031 8.24437 32.0164 5.77471 30.7907C8.84121 30.7004 11.6621 29.6219 13.9333 27.8429L15.0359 26.9793L13.6357 26.9493Z" stroke="white"/>
</svg>
