<svg width="86" height="86" viewBox="0 0 86 86" fill="none" xmlns="http://www.w3.org/2000/svg">
<path d="M75.2499 43C75.2499 35.7258 72.8491 28.9892 68.0832 22.8617V63.1742C72.8491 57.2258 75.2499 50.4892 75.2499 43ZM63.1741 68.0833H22.8616C25.2983 70.0542 28.4874 71.6667 32.4291 73.1358C36.3349 74.5333 39.8824 75.25 42.9999 75.25C46.1532 75.25 49.6649 74.5333 53.5707 73.1358C57.5124 71.6667 60.7016 70.0542 63.1741 68.0833ZM39.4166 60.9167L25.0833 32.25V60.9167H39.4166ZM60.9166 32.25L46.5832 60.9167H60.9166V32.25ZM42.9999 52.0658L56.4374 25.0833H29.5624L42.9999 52.0658ZM63.1741 17.9167C57.2257 13.1508 50.4891 10.75 42.9999 10.75C35.5107 10.75 28.7741 13.1508 22.8616 17.9167H63.1741ZM17.9166 63.1742V22.8617C13.1508 28.9892 10.7499 35.7258 10.7499 43C10.7499 50.4892 13.1508 57.2258 17.9166 63.1742ZM82.4166 43C82.4166 53.8575 78.6182 63.1742 70.8783 70.8783C63.1741 78.6183 53.8574 82.4167 42.9999 82.4167C32.1424 82.4167 22.8616 78.6183 15.1216 70.8783C7.38158 63.1742 3.58325 53.8575 3.58325 43C3.58325 32.1425 7.38158 22.8617 15.1216 15.1217C22.8616 7.38166 32.1424 3.58333 42.9999 3.58333C53.8574 3.58333 63.1741 7.38166 70.8783 15.1217C78.6182 22.8617 82.4166 32.1425 82.4166 43Z" fill="white"/>
</svg>
