<svg width="91" height="91" viewBox="0 0 91 91" fill="none" xmlns="http://www.w3.org/2000/svg">
<path d="M26.5417 49.2917H11.375C9.28962 49.2917 7.58337 47.5854 7.58337 45.5C7.58337 43.4146 9.28962 41.7083 11.375 41.7083H26.5417C28.6271 41.7083 30.3334 43.4146 30.3334 45.5C30.3334 47.5854 28.6271 49.2917 26.5417 49.2917ZM22.75 30.3333C22.75 28.2479 21.0438 26.5417 18.9584 26.5417H15.1667C13.0813 26.5417 11.375 28.2479 11.375 30.3333C11.375 32.4188 13.0813 34.125 15.1667 34.125H18.9584C21.0438 34.125 22.75 32.4188 22.75 30.3333ZM83.4167 45.5C83.4167 55.965 74.9234 64.4583 64.4584 64.4583H15.1667C13.0813 64.4583 11.375 62.7521 11.375 60.6667C11.375 58.5813 13.0813 56.875 15.1667 56.875H49.2917C47.6992 54.6758 46.448 52.0975 45.8792 49.2917H37.9167C35.8313 49.2917 34.125 47.5854 34.125 45.5C34.125 43.4146 35.8313 41.7083 37.9167 41.7083H45.8792C46.448 38.9025 47.6992 36.3242 49.2917 34.125H30.3334C28.248 34.125 26.5417 32.4188 26.5417 30.3333C26.5417 28.2479 28.248 26.5417 30.3334 26.5417H64.4584C74.9234 26.5417 83.4167 35.035 83.4167 45.5Z" fill="white"/>
</svg>
